<?xml version="1.0" encoding="UTF-8"?> <svg xmlns="http://www.w3.org/2000/svg" width="148" height="66" viewBox="0 0 148 66" fill="none"><g clip-path="url(#clip0_56_7)"><mask id="mask0_56_7" style="mask-type:luminance" maskUnits="userSpaceOnUse" x="0" y="0" width="148" height="66"><path d="M147.5 0H0.5V66H147.5V0Z" fill="white"></path></mask><g mask="url(#mask0_56_7)"><path d="M39.5984 65.8823C39.6233 65.504 39.0883 65.1258 39.9343 64.9646C42.5969 64.6483 44.7182 65.9443 47.3807 65.628C47.443 65.4296 47.5114 65.225 47.5798 65.0266C49.6327 65.318 51.7727 65.69 53.9562 66.0063C57.9874 65.9815 62.0061 65.9009 65.9999 65.752C65.9004 65.5288 65.8506 65.3242 66.255 65.2498C67.9159 65.1134 70.2177 65.3614 72.6003 65.4606C72.9549 65.4296 73.3033 65.3986 73.6516 65.3738C73.9253 65.2436 74 65.0328 74.0435 64.9026C75.1198 64.9398 76.0778 65.0142 76.9674 65.0886C88.6876 64.0717 100.594 65.9505 113.497 64.7599C116.228 64.2453 118.965 64.3445 121.59 64.1275C125.484 63.9538 130.436 63.805 134.231 63.9352C133.683 61.7836 136.271 60.4691 137.397 59.9172C139.923 60.004 141.851 58.8941 142.057 58.2864C142.673 56.4758 140.128 56.4324 142.069 53.6421C144.701 53.4251 146.212 52.7926 147.139 52.433C148.607 51.8749 144.999 51.0998 146.467 50.5356C126.952 49.5807 124.321 50.0767 104.663 49.7605C97.9567 50.61 52.8178 50.331 41.2345 49.7357C40.8799 49.7357 40.5315 49.7357 40.1832 49.7481C33.8627 49.5311 26.1799 49.5807 20.8113 50.3124C18.3478 50.7774 15.8408 51.3541 13.3524 51.9059C14.5033 52.278 15.567 52.65 16.4877 53.0097C13.9558 52.9228 11.4301 52.836 10.4535 53.2143C5.0537 54.0514 8.0895 55.1675 10.1362 56.6619C11.6168 57.3253 8.99154 58.2554 11.3182 58.9375C9.63851 58.8817 9.38967 58.8755 7.69759 58.8135C7.4923 59.4212 9.6945 58.305 8.5063 59.2785C6.88887 59.0181 8.26991 59.6444 6.58404 59.5886C7.15637 60.4195 8.29479 59.0863 10.7396 58.9189C9.82514 59.0925 7.43009 57.7594 7.08794 58.7639C7.01951 58.9685 8.70537 59.0243 9.5452 59.0491C4.35074 59.2785 1.4829 60.2024 6.19835 61.3744C4.55603 61.3186 2.23563 60.8535 0.5 60.9651C0.5 60.9651 0.506221 60.9775 0.512442 60.9837C1.37715 61.0333 2.87016 61.2628 3.67266 61.2876C2.68976 61.2566 1.70063 61.2194 0.711511 61.1883C0.867033 61.331 1.04122 61.4736 1.22162 61.6162C1.95569 61.7526 2.69598 61.8642 3.46115 61.889C2.80796 61.8642 2.15476 61.8456 1.49534 61.8208C1.98058 62.1557 2.54046 62.4843 3.15633 62.7943C5.48294 63.4826 7.70381 64.4747 8.96665 64.5181C19.1627 65.1568 29.4023 65.6528 39.5922 65.8761L39.5984 65.8823Z" fill="#294294"></path><path d="M42.8644 13.319H25.1037L31.7103 19.1228C32.7741 20.084 33.3091 21.2125 33.3091 22.5146V45.6865H21.6947V13.319H12.2451V8.07324H42.8582V13.319H42.8644Z" fill="#0086C2"></path><path d="M101.198 45.6865H91.0769V31.0219L95.6742 13.7841L81.5776 45.6865H66.7594L52.6628 13.7841L57.2601 31.0219V45.6865H47.1387V8.07324H60.2897L74.1934 39.1572L88.0349 8.07324H101.185V45.6865H101.198Z" fill="#0086C2"></path><path d="M138.424 19.7492H127.326V17.5851C127.326 16.5248 126.927 15.6505 126.137 14.9623L118.237 8.17252V39.765C118.237 40.6207 118.753 41.3461 119.786 41.929C120.713 42.4127 121.814 42.6483 123.089 42.6483C124.296 42.6483 125.298 42.4065 126.106 41.929C126.915 41.4515 127.319 40.7261 127.319 39.765V32.9194H138.417C138.417 37.4459 138.417 38.9589 138.417 37.4459C138.38 39.3991 138.125 40.8935 137.646 41.9228C136.75 43.7768 134.673 44.9921 131.407 45.575C129.721 45.916 127.214 46.0897 123.879 46.0897H119.599C110.629 46.0897 106.15 43.5722 106.15 38.5372V16.2954C106.15 13.3501 107.077 11.1922 108.937 9.8219C110.448 8.69337 112.912 8.0051 116.321 7.76947C117.011 7.70127 119.537 7.66406 123.91 7.66406C129.621 7.66406 133.515 8.16012 135.575 9.15843C137.466 10.0823 138.411 11.5271 138.411 13.4803V19.7554L138.424 19.7492Z" fill="#0086C2"></path><path d="M75.9162 23.8478L86.5664 0H65.2598L75.9162 23.8478Z" fill="#294294"></path><path d="M73.3592 25.522L84.0094 1.66797H62.709L73.3592 25.522Z" fill="#48AC34"></path><path d="M27.1811 54.9565H25.3086V60.6859H24.4688V54.9565H22.6025V54.2124H27.1873V54.9565H27.1811Z" fill="white"></path><path d="M30.7334 58.2676V60.6859H29.8936V54.2124H31.7412C32.4442 54.2124 32.9854 54.3798 33.3711 54.7209C33.7568 55.0557 33.9496 55.5393 33.9496 56.1656C33.9496 56.7919 33.7257 57.3127 33.2716 57.7096C32.8174 58.1064 32.2513 58.2924 31.5732 58.2676H30.7334ZM30.7334 54.9503V57.536H31.511C32.0211 57.536 32.4131 57.4182 32.6743 57.1887C32.9418 56.9593 33.0725 56.6307 33.0725 56.2028C33.0725 55.3719 32.5748 54.9565 31.5857 54.9565H30.7334V54.9503Z" fill="white"></path><path d="M41.9684 60.6859H41.0415L40.3821 58.9125H37.676L37.0539 60.6859H36.127L38.6029 54.2124H39.4987L41.9746 60.6859H41.9684ZM40.1208 58.1808L39.1379 55.4897C39.1068 55.4029 39.0757 55.2541 39.0383 55.0371H39.0197C38.9886 55.2293 38.9512 55.3843 38.9139 55.4897L37.9435 58.1808H40.1208Z" fill="white"></path><path d="M49.5892 60.6859H48.7494V57.7716H45.4648V60.6859H44.625V54.2124H45.4648V57.0275H48.7494V54.2124H49.5892V60.6859Z" fill="white"></path><path d="M57.427 60.4191C56.948 60.6671 56.3508 60.7974 55.6291 60.7974C54.696 60.7974 53.9557 60.4997 53.4021 59.9107C52.8484 59.3216 52.5684 58.5403 52.5684 57.573C52.5684 56.5313 52.8795 55.6942 53.5078 55.0555C54.1361 54.4231 54.9262 54.1006 55.8904 54.1006C56.5125 54.1006 57.0226 54.1874 57.427 54.3611V55.2354C56.9604 54.9811 56.4503 54.8509 55.8966 54.8509C55.175 54.8509 54.584 55.0927 54.1299 55.5702C53.6758 56.0476 53.4456 56.6987 53.4456 57.5172C53.4456 58.3357 53.6571 58.9062 54.0801 59.365C54.5031 59.8177 55.063 60.0471 55.7473 60.0471C56.3881 60.0471 56.948 59.9045 57.427 59.613V60.4129V60.4191Z" fill="white"></path><path d="M66.3168 60.6859V56.4012C66.3168 56.0478 66.3355 55.62 66.379 55.1239H66.3604C66.2857 55.4339 66.2235 55.651 66.1675 55.775L64.0275 60.6859H63.561L61.421 55.8122C61.3712 55.7006 61.309 55.4711 61.2281 55.1239H61.2032C61.2281 55.4277 61.2468 55.8618 61.2468 56.4384V60.6859H60.4443V54.2124H61.5827L63.4987 58.6521C63.6418 58.9931 63.7414 59.2536 63.7849 59.4458H63.816C63.9591 59.0489 64.0648 58.7761 64.1208 58.6335L66.068 54.2124H67.1504V60.6859H66.3168Z" fill="white"></path><path d="M74.0436 60.6859H70.5537V54.2124H73.9005V54.9565H71.3935V57.0275H73.7139V57.7654H71.3935V59.9418H74.0498V60.6797L74.0436 60.6859Z" fill="white"></path><path d="M81.558 60.6859H80.5377L79.0883 58.249C79.0572 58.1932 79.0074 58.0816 78.939 57.9142H78.9203C78.9203 57.9142 78.8643 58.0506 78.771 58.2552L77.278 60.6859H76.2578L78.4164 57.4368L76.4319 54.2124H77.4584L78.7399 56.4508C78.8145 56.5811 78.8892 56.7361 78.9638 56.9097H78.9825C79.0509 56.7609 79.1318 56.5997 79.2313 56.4322L80.5751 54.2124H81.5331L79.5051 57.4244L81.5642 60.6859H81.558Z" fill="white"></path><path d="M88.6876 60.4191C88.2086 60.6671 87.6114 60.7974 86.8897 60.7974C85.9566 60.7974 85.2163 60.4997 84.6627 59.9107C84.109 59.3216 83.8291 58.5403 83.8291 57.573C83.8291 56.5313 84.1401 55.6942 84.7684 55.0555C85.3967 54.4231 86.193 54.1006 87.151 54.1006C87.7731 54.1006 88.2832 54.1874 88.6876 54.3611V55.2354C88.221 54.9811 87.7109 54.8509 87.1572 54.8509C86.4356 54.8509 85.8446 55.0927 85.3905 55.5702C84.9364 56.0476 84.7062 56.6987 84.7062 57.5172C84.7062 58.3357 84.9177 58.9062 85.3407 59.365C85.7638 59.8177 86.3236 60.0471 87.0079 60.0471C87.6487 60.0471 88.2086 59.9045 88.6876 59.613V60.4129V60.4191Z" fill="white"></path><path d="M95.195 60.6859H91.7051V54.2124H95.0519V54.9565H92.5449V57.0275H94.8653V57.7654H92.5449V59.9418H95.2012V60.6797L95.195 60.6859Z" fill="white"></path><path d="M98.9765 58.2676V60.6859H98.1367V54.2124H99.9781C100.681 54.2124 101.223 54.3798 101.608 54.7209C101.994 55.0557 102.187 55.5393 102.187 56.1656C102.187 56.7919 101.963 57.3127 101.509 57.7096C101.055 58.1064 100.488 58.2924 99.8101 58.2676H98.9703H98.9765ZM98.9765 54.9503V57.536H99.7541C100.264 57.536 100.656 57.4182 100.918 57.1887C101.185 56.9593 101.316 56.6307 101.316 56.2028C101.316 55.3719 100.818 54.9565 99.8288 54.9565H98.9703L98.9765 54.9503Z" fill="white"></path><path d="M105.111 60.6859V54.2124H107.02C107.593 54.2124 108.047 54.3488 108.389 54.6216C108.731 54.8945 108.899 55.2541 108.899 55.7006C108.899 56.054 108.8 56.3702 108.594 56.6431C108.389 56.9159 108.115 57.1081 107.761 57.2259V57.2445C108.202 57.2941 108.557 57.4616 108.818 57.7406C109.08 58.0258 109.216 58.3855 109.216 58.8195C109.216 59.3776 109.017 59.824 108.613 60.1713C108.209 60.5185 107.698 60.6859 107.07 60.6859H105.111ZM105.95 54.9441V56.9717H106.716C107.12 56.9717 107.437 56.8725 107.667 56.6741C107.898 56.4756 108.016 56.2028 108.016 55.8556C108.016 55.2479 107.605 54.9379 106.79 54.9379H105.95V54.9441ZM105.95 57.6972V59.9542H106.958C107.4 59.9542 107.736 59.855 107.972 59.6504C108.209 59.4458 108.333 59.1667 108.333 58.8071C108.333 58.063 107.829 57.6972 106.821 57.6972H105.957H105.95Z" fill="white"></path><path d="M117.515 60.6859H116.688V56.1346C116.688 55.7378 116.7 55.4339 116.731 55.2293H116.7C116.632 55.3905 116.557 55.5331 116.476 55.651L113.21 60.6859H112.209V54.2124H113.036V58.6645C113.036 59.1481 113.024 59.4644 113.005 59.607H113.024C113.073 59.4954 113.161 59.3466 113.285 59.1605L116.47 54.2124H117.515V60.6859Z" fill="white"></path><path d="M125.366 60.4191C124.887 60.6671 124.29 60.7974 123.568 60.7974C122.635 60.7974 121.895 60.4997 121.341 59.9107C120.787 59.3216 120.507 58.5403 120.507 57.573C120.507 56.5313 120.818 55.6942 121.447 55.0555C122.075 54.4231 122.865 54.1006 123.829 54.1006C124.451 54.1006 124.961 54.1874 125.366 54.3611V55.2354C124.899 54.9811 124.389 54.8509 123.836 54.8509C123.114 54.8509 122.523 55.0927 122.069 55.5702C121.615 56.0476 121.384 56.6987 121.384 57.5172C121.384 58.3357 121.596 58.9062 122.019 59.365C122.442 59.8177 123.002 60.0471 123.686 60.0471C124.327 60.0471 124.887 59.9045 125.366 59.613V60.4129V60.4191Z" fill="white"></path></g></g><defs><clipPath id="clip0_56_7"><rect width="147" height="66" fill="white" transform="translate(0.5)"></rect></clipPath></defs></svg> 