<?xml version="1.0" encoding="UTF-8"?> <svg xmlns="http://www.w3.org/2000/svg" width="184" height="26" viewBox="0 0 184 26" fill="none"><g clip-path="url(#clip0_56_34)"><path d="M174.373 1.1505L169.202 15.7536H169.091L167.626 1.1505H156.119L147.724 24.8486H157.35L162.535 10.2113H162.646L164.322 24.8486H175.606L184 1.1505H174.373ZM136.349 16.0524H130.595L136.978 5.9962H137.089L136.349 16.0524ZM132.278 1.1505L114.259 24.8486H125.212L127.732 20.6988H135.919L135.502 24.8486H146.453L145.221 1.1505H132.278ZM117.322 18.0102C120.389 9.34942 102.762 11.6377 104.419 6.95796C104.796 5.89621 106.156 4.86723 108.369 4.86723C110.36 4.86723 110.889 6.02847 110.395 7.42229L110.195 7.98795H119.821C121.619 2.90841 118.589 0.685413 109.627 0.685413C100.943 0.685413 95.7539 3.30653 94.0626 8.08685C91.0897 16.4841 108.064 14.1598 106.407 18.8403C105.948 20.1335 104.378 21.1306 102.277 21.1306C100.284 21.1306 99.1599 20.4006 99.878 18.3749L100.077 17.8109H90.1191L89.8273 18.642C88.0858 23.5537 92.22 25.314 100.74 25.314C109.812 25.314 115.533 23.0557 117.322 18.0102ZM80.4529 12.9979C78.1839 19.4053 77.2409 21.1306 74.0878 21.1306C70.9347 21.1306 71.2133 19.4053 73.4829 12.9979C75.751 6.5922 76.6961 4.86723 79.8484 4.86723C83.0011 4.86723 82.721 6.5922 80.4529 12.9979ZM81.3291 0.685413C70.8188 0.685413 66.0005 4.13796 62.8615 12.9979C59.7234 21.8621 62.096 25.314 72.6068 25.314C83.1165 25.314 87.9354 21.8621 91.0746 12.9979C94.2123 4.13796 91.8388 0.685413 81.3291 0.685413ZM50.7061 12.9979C48.4374 19.4053 47.4942 21.1306 44.3412 21.1306C41.1881 21.1306 41.4673 19.4053 43.7357 12.9979C46.005 6.5922 46.9486 4.86723 50.101 4.86723C53.2553 4.86723 52.9752 6.5922 50.7061 12.9979ZM51.5829 0.685413C41.0712 0.685413 36.2543 4.13796 33.1142 12.9979C29.9759 21.8621 32.3491 25.314 42.8595 25.314C53.3703 25.314 58.1886 21.8621 61.3276 12.9979C64.4666 4.13796 62.0927 0.685413 51.5829 0.685413ZM21.0141 12.9979C18.7437 19.4053 17.8939 20.4006 13.9101 20.4006H11.8637L17.1072 5.59608H19.1545C23.1371 5.59608 23.2818 6.5922 21.0141 12.9979ZM23.3294 1.1505H8.39362L0 24.8486H14.9359C26.8277 24.8486 29.436 19.2054 31.6342 12.9979C33.8337 6.79135 35.2223 1.1505 23.3294 1.1505Z" fill="#231F20"></path></g><defs><clipPath id="clip0_56_34"><rect width="184" height="24.6286" fill="white" transform="translate(0 0.685547)"></rect></clipPath></defs></svg> 